<svg xmlns="http://www.w3.org/2000/svg" version="1.1" xmlns:xlink="http://www.w3.org/1999/xlink" xmlns:svgjs="http://svgjs.dev/svgjs" width="30" height="40" viewBox="0 0 1000 1104"><g transform="matrix(1,0,0,1,-0.22548976904079154,0.3446411831888554)"><svg viewBox="0 0 296 327" data-background-color="#ffffff" preserveAspectRatio="xMidYMid meet" height="1104" width="1000" xmlns="http://www.w3.org/2000/svg" xmlns:xlink="http://www.w3.org/1999/xlink"><g id="tight-bounds" transform="matrix(1,0,0,1,0.06872436673126003,-0.10175845803755124)"><svg viewBox="0 0 295.86453066163267 327.2" height="327.2" width="295.86453066163267"><g><svg viewBox="0 0 295.86453066163267 327.2" height="327.2" width="295.86453066163267"><g><svg viewBox="0 0 295.86453066163267 327.2" height="327.2" width="295.86453066163267"><g id="textblocktransform"><svg viewBox="0 0 295.86453066163267 327.2" height="327.2" width="295.86453066163267" id="textblock"><g><svg viewBox="0 0 295.86453066163267 327.2" height="327.2" width="295.86453066163267"><g transform="matrix(1,0,0,1,0,0)"><svg width="295.86453066163267" viewBox="24.9451904296875 -9.434968948364258 28.463943481445312 31.478599548339844" height="327.2" data-palette-color="#000000"><path d="M34.887 21.345l-7.839 0.699-2.103-23.577 7.839-0.699c2.497-0.223 4.619 0.12 6.367 1.029 1.74 0.902 3.105 2.206 4.093 3.912 0.989 1.712 1.581 3.651 1.774 5.815v0c0.213 2.391-0.056 4.513-0.808 6.367-0.745 1.853-1.918 3.34-3.518 4.46-1.593 1.126-3.528 1.79-5.805 1.994zM43.325 8.675v0c-0.175-1.966-0.704-3.692-1.587-5.18-0.875-1.481-2.056-2.598-3.541-3.348-1.485-0.744-3.244-1.026-5.276-0.845v0l-6.146 0.548 1.83 20.519 6.146-0.548c2.058-0.184 3.754-0.793 5.087-1.83 1.333-1.036 2.292-2.366 2.877-3.991 0.578-1.624 0.781-3.399 0.61-5.325zM48.594 17.905l-1.493 0.814-11.331-20.782 13.52-7.372 0.737 1.352-12.028 6.559 4.5 8.253 10.211-5.568 0.699 1.282-10.211 5.567z" opacity="1" transform="matrix(1,0,0,1,0,0)" fill="#fff" class="undefined-text-0" data-fill-palette-color="primary" id="text-0"></path></svg></g></svg></g></svg></g></svg></g><g></g></svg></g><defs></defs></svg><rect width="295.86453066163267" height="327.2" fill="none" stroke="none" visibility="hidden"></rect></g></svg></g></svg>